<?xml version="1.0" encoding="UTF-8" standalone="no"?>
<svg
   xmlns:dc="http://purl.org/dc/elements/1.1/"
   xmlns:cc="http://creativecommons.org/ns#"
   xmlns:rdf="http://www.w3.org/1999/02/22-rdf-syntax-ns#"
   xmlns:svg="http://www.w3.org/2000/svg"
   xmlns="http://www.w3.org/2000/svg"
   xmlns:sodipodi="http://sodipodi.sourceforge.net/DTD/sodipodi-0.dtd"
   xmlns:inkscape="http://www.inkscape.org/namespaces/inkscape"
   width="41.3242mm"
   height="38.313759mm"
   viewBox="0 0 41.3242 38.313759"
   version="1.1"
   id="svg8"
   inkscape:version="1.0.2 (e86c8708, 2021-01-15)"
   sodipodi:docname="archive.svg">
  <defs
     id="defs2">
    <filter
       inkscape:collect="always"
       style="color-interpolation-filters:sRGB"
       id="filter869"
       x="-2.8907198e-05"
       width="1.0000578"
       y="-3.1178675e-05"
       height="1.0000623">
      <feGaussianBlur
         inkscape:collect="always"
         stdDeviation="0.00011472537"
         id="feGaussianBlur871" />
    </filter>
  </defs>
  <sodipodi:namedview
     id="base"
     pagecolor="#ffffff"
     bordercolor="#666666"
     borderopacity="1.0"
     inkscape:pageopacity="0.0"
     inkscape:pageshadow="2"
     inkscape:zoom="0.7"
     inkscape:cx="-31.766309"
     inkscape:cy="-27.645602"
     inkscape:document-units="mm"
     inkscape:current-layer="layer1"
     inkscape:document-rotation="0"
     showgrid="false"
     inkscape:window-width="1251"
     inkscape:window-height="943"
     inkscape:window-x="0"
     inkscape:window-y="25"
     inkscape:window-maximized="0" />
  <metadata
     id="metadata5">
    <rdf:RDF>
      <cc:Work
         rdf:about="">
        <dc:format>image/svg+xml</dc:format>
        <dc:type
           rdf:resource="http://purl.org/dc/dcmitype/StillImage" />
        <dc:title></dc:title>
      </cc:Work>
    </rdf:RDF>
  </metadata>
  <g
     inkscape:label="Capa 1"
     inkscape:groupmode="layer"
     id="layer1"
     transform="translate(-91.073092,-137.07279)">
    <path
       style="fill:#7e7e7e;fill-opacity:1;stroke-width:0.264583;filter:url(#filter869)"
       d="m 92.197845,145.24953 c -0.469096,-0.50102 -0.595312,-0.94635 -0.595312,-2.10048 0,-0.80557 -0.119063,-1.46467 -0.264584,-1.46467 -0.14552,0 -0.264583,-0.53975 -0.264583,-1.19944 0,-1.01582 0.140419,-1.33987 0.917222,-2.11667 l 0.917222,-0.91722 2.928056,-0.37798 2.928056,0.37798 0.91722,0.91722 c 0.776798,0.7768 0.917218,1.10085 0.917218,2.11667 0,0.65969 -0.11906,1.19944 -0.26458,1.19944 -0.14552,0 -0.26458,0.66026 -0.26458,1.46724 0,1.20503 -0.116058,1.58329 -0.649428,2.11666 -0.615177,0.61518 -0.80709,0.64858 -3.638025,0.63325 -2.803677,-0.0152 -3.025423,-0.0555 -3.583902,-0.652 z m 6.435045,-0.76812 c 0.217336,-0.21734 0.377976,-0.89203 0.377976,-1.5875 v -1.20953 h -3.175 -3.175 v 1.2018 c 0,0.66098 0.148828,1.37083 0.330729,1.57743 0.471251,0.53525 5.109211,0.54988 5.641295,0.0178 z m -3.855357,-1.20953 c 0,-0.44097 0.176389,-0.52916 1.058333,-0.52916 0.881945,0 1.058334,0.0882 1.058334,0.52916 0,0.44098 -0.176389,0.52917 -1.058334,0.52917 -0.881944,0 -1.058333,-0.0882 -1.058333,-0.52917 z m 4.762499,-2.64583 c 0,-0.50397 -0.17639,-0.52917 -3.704166,-0.52917 -3.527778,0 -3.704167,0.0252 -3.704167,0.52917 0,0.50397 0.176389,0.52917 3.704167,0.52917 3.527776,0 3.704166,-0.0252 3.704166,-0.52917 z m -0.529166,-1.20952 c 0,-0.0832 -0.170089,-0.32128 -0.377976,-0.52917 -0.533605,-0.53361 -5.060443,-0.53361 -5.594048,0 -0.207887,0.20789 -0.377976,0.44601 -0.377976,0.52917 0,0.0832 1.42875,0.15119 3.175,0.15119 1.74625,0 3.175,-0.068 3.175,-0.15119 z"
       id="path28"
       sodipodi:nodetypes="ssssscccssssssssscccsssssssssssssssssss"
       transform="matrix(4.3382504,0,0,4.3382504,-304.02478,-457.58332)" />
  </g>
</svg>
