<?xml version="1.0" encoding="UTF-8" standalone="no"?>
<svg
   xmlns:dc="http://purl.org/dc/elements/1.1/"
   xmlns:cc="http://creativecommons.org/ns#"
   xmlns:rdf="http://www.w3.org/1999/02/22-rdf-syntax-ns#"
   xmlns:svg="http://www.w3.org/2000/svg"
   xmlns="http://www.w3.org/2000/svg"
   xmlns:sodipodi="http://sodipodi.sourceforge.net/DTD/sodipodi-0.dtd"
   xmlns:inkscape="http://www.inkscape.org/namespaces/inkscape"
   width="41.3242mm"
   height="38.313759mm"
   viewBox="0 0 41.3242 38.313759"
   version="1.1"
   id="svg8"
   inkscape:version="1.0.2 (e86c8708, 2021-01-15)"
   sodipodi:docname="call.svg">
  <defs
     id="defs2" />
  <sodipodi:namedview
     id="base"
     pagecolor="#ffffff"
     bordercolor="#666666"
     borderopacity="1.0"
     inkscape:pageopacity="0.0"
     inkscape:pageshadow="2"
     inkscape:zoom="1.4"
     inkscape:cx="-11.530853"
     inkscape:cy="-12.002402"
     inkscape:document-units="mm"
     inkscape:current-layer="layer1"
     inkscape:document-rotation="0"
     showgrid="false"
     inkscape:window-width="1251"
     inkscape:window-height="943"
     inkscape:window-x="0"
     inkscape:window-y="25"
     inkscape:window-maximized="0" />
  <metadata
     id="metadata5">
    <rdf:RDF>
      <cc:Work
         rdf:about="">
        <dc:format>image/svg+xml</dc:format>
        <dc:type
           rdf:resource="http://purl.org/dc/dcmitype/StillImage" />
        <dc:title></dc:title>
      </cc:Work>
    </rdf:RDF>
  </metadata>
  <g
     inkscape:label="Capa 1"
     inkscape:groupmode="layer"
     id="layer1"
     transform="translate(-91.073092,-137.07279)">
    <path
       style="fill:#5fc237;fill-opacity:1;stroke-width:0.928325"
       d="m 103.88879,172.87425 c -15.045926,-6.94415 -13.790643,-29.28607 1.93712,-34.47667 5.54196,-1.82902 12.82644,-0.74408 16.87063,2.51274 6.80265,5.47821 9.54569,14.65416 6.66216,22.28607 -3.51779,9.31065 -15.994,14.05126 -25.46991,9.67786 z m 12.71866,-1.9949 c 4.19113,-1.16403 9.75526,-7.32768 10.57909,-11.71898 2.0308,-10.82515 -8.80632,-21.15109 -18.99458,-18.09861 -7.3774,2.21033 -11.479829,7.57092 -11.479829,15.00056 0,7.1234 3.463439,12.05815 10.132259,14.43655 4.34187,1.5485 5.408,1.59004 9.76306,0.38048 z m -5.28997,-6.99629 c -7.62015,-3.97324 -11.2265,-11.85448 -7.12351,-15.56763 2.31903,-2.09869 3.78736,-1.92775 4.70301,0.54756 0.52065,1.40742 0.31753,2.77589 -0.62576,4.21548 -2.07073,3.16033 -0.25754,6.69714 3.43365,6.69714 1.51257,0 3.00827,-0.41774 3.32384,-0.92831 4.64344,-1.83537 7.50809,2.20955 4.56487,4.53613 -2.97188,2.3377 -4.56638,2.43394 -8.2761,0.49963 z"
       id="path855"
       sodipodi:nodetypes="cccccsccssscsccsccc" />
  </g>
</svg>
