<?xml version="1.0" encoding="UTF-8" standalone="no"?>
<svg
   xmlns:dc="http://purl.org/dc/elements/1.1/"
   xmlns:cc="http://creativecommons.org/ns#"
   xmlns:rdf="http://www.w3.org/1999/02/22-rdf-syntax-ns#"
   xmlns:svg="http://www.w3.org/2000/svg"
   xmlns="http://www.w3.org/2000/svg"
   xmlns:sodipodi="http://sodipodi.sourceforge.net/DTD/sodipodi-0.dtd"
   xmlns:inkscape="http://www.inkscape.org/namespaces/inkscape"
   width="41.3242mm"
   height="38.313759mm"
   viewBox="0 0 41.3242 38.313759"
   version="1.1"
   id="svg8"
   inkscape:version="1.0.2 (e86c8708, 2021-01-15)"
   sodipodi:docname="cog.svg">
  <defs
     id="defs2">
    <filter
       inkscape:collect="always"
       style="color-interpolation-filters:sRGB"
       id="filter869"
       x="-2.8907198e-05"
       width="1.0000578"
       y="-3.1178675e-05"
       height="1.0000623">
      <feGaussianBlur
         inkscape:collect="always"
         stdDeviation="0.00011472537"
         id="feGaussianBlur871" />
    </filter>
  </defs>
  <sodipodi:namedview
     id="base"
     pagecolor="#ffffff"
     bordercolor="#666666"
     borderopacity="1.0"
     inkscape:pageopacity="0.0"
     inkscape:pageshadow="2"
     inkscape:zoom="1.4"
     inkscape:cx="-11.530853"
     inkscape:cy="-12.002402"
     inkscape:document-units="mm"
     inkscape:current-layer="layer1"
     inkscape:document-rotation="0"
     showgrid="false"
     inkscape:window-width="1251"
     inkscape:window-height="943"
     inkscape:window-x="0"
     inkscape:window-y="25"
     inkscape:window-maximized="0" />
  <metadata
     id="metadata5">
    <rdf:RDF>
      <cc:Work
         rdf:about="">
        <dc:format>image/svg+xml</dc:format>
        <dc:type
           rdf:resource="http://purl.org/dc/dcmitype/StillImage" />
        <dc:title></dc:title>
      </cc:Work>
    </rdf:RDF>
  </metadata>
  <g
     inkscape:label="Capa 1"
     inkscape:groupmode="layer"
     id="layer1"
     transform="translate(-91.073092,-137.07279)">
    <path
       style="fill:#7f7f7f;stroke-width:1.03855;fill-opacity:1"
       d="m 109.29553,173.56608 c -2.37347,-2.04883 -4.11694,-5.4138 -4.68881,-3.69808 -0.2363,0.70891 -1.79278,1.2889 -3.45876,1.2889 -2.673331,0 -3.029118,-0.36583 -3.029118,-3.11566 0,-1.71361 0.467345,-3.11565 1.038547,-3.11565 0.571201,0 1.716681,-0.59562 1.716681,-1.73802 0,-1.19595 -1.370523,-2.41618 -2.310142,-2.41618 -1.901696,0 -4.599317,-2.43657 -4.599317,-4.1542 0,-1.7177 2.697621,-4.15425 4.599317,-4.15425 0.939619,0 1.631992,-0.88118 1.631992,-2.07708 0,-1.14244 -0.46733,-2.07712 -1.038531,-2.07712 -1.542501,0 -1.256988,-3.04558 0.445074,-4.74765 1.702077,-1.70207 4.747697,-1.98762 4.747697,-0.44513 0,0.5712 0.93468,1.03859 2.07708,1.03859 1.19595,0 2.07713,-0.69238 2.07713,-1.63204 0,-1.90169 2.43655,-4.59928 4.1542,-4.59928 1.71768,0 4.15423,2.69759 4.15423,4.59928 0,0.93966 0.88118,1.63204 2.07709,1.63204 1.14243,0 2.07711,-0.46739 2.07711,-1.03859 0,-1.54249 3.0456,-1.25694 4.74766,0.44513 1.70206,1.70207 1.98762,4.74765 0.44512,4.74765 -0.5712,0 -1.03858,0.93468 -1.03858,2.07712 0,1.1959 0.69238,2.07708 1.63203,2.07708 2.45155,0 3.69511,0.82439 3.69511,3.82951 0,2.27495 0.44261,4.47894 -2.21147,4.47894 -2.74968,0 -3.90683,0.12957 -3.90683,2.80305 0,1.66603 1.37119,3.44851 2.0801,3.68481 1.76391,2.63827 -4.84947,4.76815 -5.71511,2.59946 -0.28144,-0.82035 -1.72633,-0.62085 -3.7319,1.512 -0.61526,4.11136 -5.42735,4.1292 -7.6676,2.19537 z m 5.44016,-7.60192 c 0,-0.5712 0.7344,-1.03857 1.63199,-1.03857 2.09898,0 4.59932,-2.50034 4.59932,-4.59929 0,-0.89762 0.46734,-1.63204 1.03854,-1.63204 0.5712,0 1.03858,-0.93468 1.03858,-2.07707 0,-1.14245 -0.46738,-2.07713 -1.03858,-2.07713 -0.5712,0 -1.03854,-0.73441 -1.03854,-1.63199 0,-2.09899 -2.50034,-4.59933 -4.59932,-4.59933 -0.89759,0 -1.63199,-0.46733 -1.63199,-1.03853 0,-0.5712 -0.93468,-1.03858 -2.07712,-1.03858 -1.1424,0 -2.07708,0.46738 -2.07708,1.03858 0,0.5712 -0.73442,1.03853 -1.63204,1.03853 -2.09895,0 -4.59929,2.50034 -4.59929,4.59933 0,0.89758 -0.46737,1.63199 -1.03858,1.63199 -0.5712,0 -1.03854,0.93468 -1.03854,2.07713 0,1.14239 0.46734,2.07707 1.03854,2.07707 0.57121,0 1.03858,0.73442 1.03858,1.63204 0,2.09895 2.50034,4.59929 4.59929,4.59929 0.89762,0 1.63204,0.46737 1.63204,1.03857 0,0.5712 0.93468,1.03854 2.07708,1.03854 1.14244,0 2.07712,-0.46734 2.07712,-1.03854 z m -4.93313,-6.74627 c -0.714,-0.81099 -1.29819,-1.99497 -1.29819,-2.63109 0,-1.50764 2.63544,-4.12386 4.1542,-4.12386 1.53265,0 4.15423,2.62159 4.15423,4.15425 0,1.63164 -2.66951,4.16275 -4.33966,4.1147 -0.75482,-0.0236 -1.95657,-0.70304 -2.67058,-1.514 z"
       id="path1038"
       sodipodi:nodetypes="scssssssssscssssssscsssssscccsssssssssssssssssssssscssscc" />
  </g>
</svg>
