<?xml version="1.0" encoding="UTF-8" standalone="no"?>
<svg
   xmlns:dc="http://purl.org/dc/elements/1.1/"
   xmlns:cc="http://creativecommons.org/ns#"
   xmlns:rdf="http://www.w3.org/1999/02/22-rdf-syntax-ns#"
   xmlns:svg="http://www.w3.org/2000/svg"
   xmlns="http://www.w3.org/2000/svg"
   xmlns:sodipodi="http://sodipodi.sourceforge.net/DTD/sodipodi-0.dtd"
   xmlns:inkscape="http://www.inkscape.org/namespaces/inkscape"
   width="41.3242mm"
   height="38.313759mm"
   viewBox="0 0 41.3242 38.313759"
   version="1.1"
   id="svg8"
   inkscape:version="1.0.2 (e86c8708, 2021-01-15)"
   sodipodi:docname="settings.svg">
  <defs
     id="defs2">
    <filter
       inkscape:collect="always"
       style="color-interpolation-filters:sRGB"
       id="filter869"
       x="-2.8907198e-05"
       width="1.0000578"
       y="-3.1178675e-05"
       height="1.0000623">
      <feGaussianBlur
         inkscape:collect="always"
         stdDeviation="0.00011472537"
         id="feGaussianBlur871" />
    </filter>
  </defs>
  <sodipodi:namedview
     id="base"
     pagecolor="#ffffff"
     bordercolor="#666666"
     borderopacity="1.0"
     inkscape:pageopacity="0.0"
     inkscape:pageshadow="2"
     inkscape:zoom="1.4"
     inkscape:cx="27.287399"
     inkscape:cy="-56.786544"
     inkscape:document-units="mm"
     inkscape:current-layer="layer1"
     inkscape:document-rotation="0"
     showgrid="false"
     inkscape:window-width="1251"
     inkscape:window-height="943"
     inkscape:window-x="0"
     inkscape:window-y="25"
     inkscape:window-maximized="0" />
  <metadata
     id="metadata5">
    <rdf:RDF>
      <cc:Work
         rdf:about="">
        <dc:format>image/svg+xml</dc:format>
        <dc:type
           rdf:resource="http://purl.org/dc/dcmitype/StillImage" />
        <dc:title></dc:title>
      </cc:Work>
    </rdf:RDF>
  </metadata>
  <g
     inkscape:label="Capa 1"
     inkscape:groupmode="layer"
     id="layer1"
     transform="translate(-91.073092,-137.07279)">
    <path
       style="fill:#4f4f4f;stroke-width:1.17999;fill-opacity:1"
       d="m 97.653517,171.92643 c 0,-1.92583 -0.974113,-3.98159 -2.359916,-4.98045 -1.599206,-1.15265 -2.360006,-3.05463 -2.360006,-5.89999 0,-2.84533 0.7608,-4.74735 2.360006,-5.89995 1.96058,-1.41315 2.359916,-3.05466 2.359916,-9.70048 0,-7.21278 0.231909,-7.99945 2.360003,-7.99945 2.12791,0 2.36001,0.78667 2.36001,7.99945 0,6.64582 0.39915,8.28733 2.35996,9.70048 1.59921,1.1526 2.36001,3.05462 2.36001,5.89995 0,2.84536 -0.7608,4.74734 -2.36001,5.89999 -1.38585,0.99886 -2.35996,3.05462 -2.35996,4.98045 0,2.49282 -0.56613,3.27949 -2.36001,3.27949 -1.79387,0 -2.360003,-0.78667 -2.360003,-3.27949 z m 4.720013,-10.88044 c 0,-1.5733 -0.78667,-2.35997 -2.36001,-2.35997 -1.573335,0 -2.360003,0.78667 -2.360003,2.35997 0,1.57334 0.786668,2.36 2.360003,2.36 1.57334,0 2.36001,-0.78666 2.36001,-2.36 z m 18.87991,6.16048 c 0,-6.6458 -0.39916,-8.28733 -2.36,-9.70048 -1.59916,-1.15258 -2.35996,-3.05461 -2.35996,-5.89993 0,-2.84538 0.7608,-4.74736 2.35996,-5.89999 1.38589,-0.99888 2.36,-3.05463 2.36,-4.98047 0,-2.49282 0.56608,-3.27949 2.36001,-3.27949 1.79387,0 2.35995,0.78667 2.35995,3.27949 0,1.92584 0.97411,3.98159 2.36001,4.98047 1.5992,1.15263 2.36,3.05461 2.36,5.89999 0,2.84532 -0.7608,4.74735 -2.36,5.89993 -1.96062,1.41315 -2.36001,3.05468 -2.36001,9.70048 0,7.21278 -0.23191,7.99945 -2.35995,7.99945 -2.12792,0 -2.36001,-0.78667 -2.36001,-7.99945 z m 4.71996,-15.60041 c 0,-1.57334 -0.78667,-2.36001 -2.35995,-2.36001 -1.57334,0 -2.36001,0.78667 -2.36001,2.36001 0,1.57328 0.78667,2.35995 2.36001,2.35995 1.57328,0 2.35995,-0.78667 2.35995,-2.35995 z"
       id="path1072" />
  </g>
</svg>
